<svg xmlns="http://www.w3.org/2000/svg" width="64" height="64" viewBox="0 0 64 64" role="img" aria-label="CornerStone">
  <defs>
    <linearGradient id="csGradient" x1="0" y1="0" x2="1" y2="1">
      <stop offset="0%" stop-color="#5b8cff"/>
      <stop offset="100%" stop-color="#7c4dff"/>
    </linearGradient>
  </defs>
  <rect x="6" y="6" width="52" height="52" rx="12" fill="url(#csGradient)"/>
  <path d="M40.5 20.5c-2.8-2.8-6.6-4.4-10.6-4.4-8.3 0-15 6.7-15 15 0 8.3 6.7 15 15 15 4 0 7.8-1.6 10.6-4.4l-3.2-3.2c-1.9 1.9-4.5 3-7.4 3-5.8 0-10.4-4.7-10.4-10.4 0-5.8 4.7-10.4 10.4-10.4 2.9 0 5.5 1.1 7.4 3l3.2-3.2z" fill="#ffffff" opacity="0.92"/>
</svg>
